<?xml version="1.0" encoding="utf-8"?>
<!-- Generator: Adobe Illustrator 16.0.0, SVG Export Plug-In . SVG Version: 6.00 Build 0)  -->
<!DOCTYPE svg PUBLIC "-//W3C//DTD SVG 1.1//EN" "http://www.w3.org/Graphics/SVG/1.1/DTD/svg11.dtd">
<svg version="1.1" id="Layer_1" xmlns="http://www.w3.org/2000/svg" xmlns:xlink="http://www.w3.org/1999/xlink" x="0px" y="0px"
	 width="22.167px" height="14px" viewBox="0 0 22.167 14" enable-background="new 0 0 22.167 14" xml:space="preserve">
<g>
	<path fill="#334E5D" d="M22.167,1.75c0,0.967-0.783,1.75-1.75,1.75H1.75C0.783,3.5,0,2.717,0,1.75l0,0C0,0.783,0.783,0,1.75,0
		h18.667C21.384,0,22.167,0.783,22.167,1.75L22.167,1.75z"/>
	<path fill="#334E5D" d="M22.167,7c0,0.967-0.783,1.75-1.75,1.75H1.75C0.783,8.75,0,7.967,0,7l0,0c0-0.967,0.783-1.75,1.75-1.75
		h18.667C21.384,5.25,22.167,6.033,22.167,7L22.167,7z"/>
	<path fill="#334E5D" d="M22.167,12.25c0,0.967-0.783,1.75-1.75,1.75H1.75C0.783,14,0,13.217,0,12.25l0,0
		c0-0.967,0.783-1.75,1.75-1.75h18.667C21.384,10.5,22.167,11.283,22.167,12.25L22.167,12.25z"/>
</g>
</svg>
