<?xml version="1.0" encoding="utf-8"?>
<!-- Generator: Adobe Illustrator 16.0.0, SVG Export Plug-In . SVG Version: 6.00 Build 0)  -->
<!DOCTYPE svg PUBLIC "-//W3C//DTD SVG 1.1//EN" "http://www.w3.org/Graphics/SVG/1.1/DTD/svg11.dtd">
<svg version="1.1" id="Layer_1" xmlns="http://www.w3.org/2000/svg" xmlns:xlink="http://www.w3.org/1999/xlink" x="0px" y="0px"
	 width="22px" height="22px" viewBox="0 0 22 22" enable-background="new 0 0 22 22" xml:space="preserve">
<g>
	<path fill="#FFFFFF" d="M11,0C4.925,0,0,4.925,0,11s4.925,11,11,11s11-4.925,11-11S17.075,0,11,0z M11.043,17.351h-0.099H4.421
		c1.039-4.725,5.036-4.903,5.036-4.903c-1.641-0.621-2.81-2.203-2.81-4.062c0-2.401,1.946-4.347,4.347-4.347
		s4.347,1.946,4.347,4.347c0,1.858-1.168,3.44-2.81,4.062c0,0,3.997,0.178,5.036,4.903H11.043z"/>
</g>
</svg>
