<?xml version="1.0" encoding="utf-8"?>
<!-- Generator: Adobe Illustrator 16.0.0, SVG Export Plug-In . SVG Version: 6.00 Build 0)  -->
<!DOCTYPE svg PUBLIC "-//W3C//DTD SVG 1.1//EN" "http://www.w3.org/Graphics/SVG/1.1/DTD/svg11.dtd">
<svg version="1.1" id="Layer_1" xmlns="http://www.w3.org/2000/svg" xmlns:xlink="http://www.w3.org/1999/xlink" x="0px" y="0px"
	 width="99.999px" height="100px" viewBox="0 0 99.999 100" enable-background="new 0 0 99.999 100" xml:space="preserve">
<path fill="#7E558C" d="M63.995,38.728c-0.325-0.479-0.834-0.791-1.405-0.865c-2.875-0.369-5.039-2.816-5.039-5.691
	c0-2.877,2.165-5.325,5.039-5.694c0.571-0.074,1.08-0.389,1.405-0.864c0.324-0.477,0.431-1.069,0.288-1.627
	c-0.782-3.071-1.998-6.011-3.619-8.735c-0.295-0.496-0.786-0.841-1.351-0.948c-0.571-0.106-1.152,0.03-1.609,0.385
	c-2.215,1.71-5.603,1.52-7.584-0.464c-2.038-2.033-2.235-5.294-0.464-7.589c0.35-0.452,0.491-1.039,0.385-1.604
	c-0.109-0.563-0.455-1.057-0.949-1.354c-2.719-1.616-5.656-2.833-8.734-3.616c-0.563-0.141-1.152-0.037-1.628,0.283
	c-0.477,0.327-0.79,0.839-0.864,1.41c-0.371,2.872-2.818,5.037-5.693,5.037c-2.878,0-5.322-2.165-5.69-5.037
	c-0.077-0.57-0.392-1.083-0.865-1.41c-0.478-0.32-1.067-0.422-1.628-0.283c-3.082,0.783-6.022,2-8.739,3.616
	c-0.496,0.297-0.839,0.791-0.946,1.354c-0.109,0.566,0.032,1.152,0.385,1.604c1.771,2.295,1.571,5.556-0.462,7.592
	c-1.981,1.979-5.366,2.176-7.589,0.461c-0.457-0.353-1.041-0.487-1.607-0.385c-0.567,0.107-1.056,0.452-1.353,0.948
	c-1.623,2.726-2.84,5.667-3.616,8.737c-0.144,0.559-0.037,1.15,0.285,1.625c0.325,0.476,0.837,0.791,1.407,0.864
	c2.875,0.369,5.04,2.817,5.04,5.694c0,2.875-2.165,5.322-5.04,5.691c-0.569,0.074-1.082,0.386-1.407,0.862
	c-0.322,0.477-0.429,1.07-0.285,1.627c0.776,3.074,1.996,6.013,3.616,8.737c0.297,0.496,0.786,0.841,1.353,0.95
	c0.562,0.101,1.15-0.034,1.604-0.385c2.23-1.712,5.613-1.518,7.59,0.459c2.034,2.036,2.234,5.296,0.463,7.591
	c-0.353,0.455-0.492,1.041-0.385,1.606c0.109,0.566,0.455,1.055,0.948,1.353c2.719,1.615,5.659,2.833,8.736,3.617
	c0.162,0.041,0.329,0.061,0.496,0.061c0.399,0,0.793-0.119,1.132-0.347c0.473-0.324,0.788-0.837,0.865-1.408
	c0.368-2.872,2.812-5.04,5.69-5.04c2.875,0,5.323,2.168,5.693,5.04c0.074,0.573,0.387,1.086,0.864,1.408
	c0.476,0.325,1.064,0.426,1.628,0.287c3.077-0.785,6.013-2.002,8.731-3.617c0.494-0.297,0.84-0.786,0.946-1.353
	c0.109-0.566-0.03-1.149-0.38-1.604c-1.771-2.297-1.569-5.558,0.464-7.589c1.983-1.985,5.364-2.177,7.586-0.464
	c0.455,0.353,1.041,0.491,1.607,0.385c0.565-0.109,1.056-0.454,1.351-0.95c1.621-2.725,2.837-5.661,3.619-8.737
	C64.426,39.795,64.319,39.202,63.995,38.728z M32.172,45.605c-7.409,0-13.436-6.025-13.436-13.433
	c0-7.409,6.027-13.438,13.436-13.438c7.409,0,13.436,6.03,13.436,13.438C45.608,39.58,39.582,45.605,32.172,45.605z"/>
<path fill="#7E558C" d="M79.111,99.09c0.244-0.371,0.319-0.823,0.21-1.25c-0.571-2.149,0.544-4.395,2.586-5.225
	c2.045-0.829,4.41,0,5.501,1.94c0.216,0.382,0.589,0.651,1.02,0.744c0.437,0.094,0.883,0,1.244-0.264
	c1.956-1.441,3.692-3.154,5.16-5.093c0.266-0.352,0.371-0.802,0.284-1.235c-0.09-0.438-0.359-0.811-0.741-1.029
	c-1.852-1.083-2.701-3.543-1.861-5.525c0.859-2.035,3.12-3.12,5.262-2.524c0.422,0.121,0.881,0.051,1.252-0.185
	c0.366-0.242,0.619-0.631,0.689-1.067c0.361-2.399,0.378-4.839,0.046-7.25c-0.063-0.443-0.309-0.833-0.67-1.077
	c-0.371-0.245-0.823-0.319-1.249-0.208c-2.154,0.568-4.398-0.547-5.226-2.59c-0.833-2.044,0-4.406,1.936-5.498
	c0.385-0.22,0.656-0.595,0.75-1.021c0.09-0.433-0.009-0.886-0.269-1.242c-1.449-1.963-3.162-3.703-5.093-5.163
	c-0.357-0.269-0.804-0.368-1.236-0.283c-0.433,0.086-0.809,0.357-1.029,0.738c-1.117,1.921-3.496,2.721-5.531,1.864
	c-1.978-0.837-3.089-3.186-2.518-5.26c0.121-0.428,0.044-0.879-0.189-1.254c-0.239-0.372-0.626-0.617-1.067-0.689
	c-2.404-0.363-4.848-0.377-7.249-0.046c-0.44,0.058-0.83,0.308-1.073,0.675c-0.246,0.368-0.322,0.82-0.211,1.247
	c0.57,2.154-0.544,4.396-2.589,5.228c-2.042,0.829-4.407-0.002-5.501-1.938c-0.215-0.382-0.583-0.658-1.015-0.748
	c-0.434-0.094-0.888,0-1.241,0.264c-1.961,1.438-3.697,3.155-5.164,5.093c-0.266,0.352-0.372,0.802-0.283,1.235
	c0.09,0.43,0.354,0.81,0.733,1.031c1.865,1.088,2.702,3.55,1.87,5.525c-0.86,2.033-3.123,3.12-5.262,2.522
	c-0.426-0.121-0.882-0.048-1.251,0.189c-0.373,0.239-0.621,0.629-0.688,1.062c-0.365,2.401-0.378,4.842-0.049,7.255
	c0.018,0.125,0.051,0.249,0.097,0.369c0.119,0.284,0.317,0.531,0.577,0.705c0.367,0.24,0.821,0.317,1.25,0.211
	c2.146-0.571,4.39,0.54,5.224,2.587c0.83,2.042-0.004,4.409-1.935,5.5c-0.387,0.218-0.659,0.587-0.754,1.023
	c-0.092,0.429,0.007,0.878,0.267,1.237c1.447,1.958,3.16,3.693,5.095,5.16c0.351,0.267,0.801,0.368,1.229,0.281
	c0.436-0.089,0.809-0.353,1.034-0.733c1.12-1.922,3.498-2.721,5.526-1.861c1.982,0.837,3.095,3.18,2.522,5.257
	c-0.12,0.425-0.051,0.881,0.19,1.25c0.238,0.373,0.625,0.623,1.063,0.688c2.407,0.363,4.84,0.382,7.253,0.043
	C78.472,99.705,78.866,99.457,79.111,99.09z M65.036,78.462c-2.142-5.267,0.396-11.287,5.664-13.426
	c5.265-2.142,11.289,0.4,13.429,5.667c2.14,5.265-0.404,11.287-5.67,13.426C73.195,86.269,67.17,83.727,65.036,78.462z"/>
</svg>
