<?xml version="1.0" encoding="utf-8"?>
<!-- Generator: Adobe Illustrator 16.0.0, SVG Export Plug-In . SVG Version: 6.00 Build 0)  -->
<!DOCTYPE svg PUBLIC "-//W3C//DTD SVG 1.1//EN" "http://www.w3.org/Graphics/SVG/1.1/DTD/svg11.dtd">
<svg version="1.1" id="Layer_1" xmlns="http://www.w3.org/2000/svg" xmlns:xlink="http://www.w3.org/1999/xlink" x="0px" y="0px"
	 width="13.291px" height="17.001px" viewBox="0 0 13.291 17.001" enable-background="new 0 0 13.291 17.001" xml:space="preserve">
<g>
	<path fill="#334E5D" d="M7.475,0.005C4.138-0.123,1.328,2.479,1.2,5.816c-0.073,1.898,0.737,3.623,2.063,4.784L1.71,12.988
		l-0.975,1.501l-0.472,0.724c-0.397,0.607-0.339,1.348,0.129,1.654c0.47,0.308,1.171,0.065,1.569-0.541l1.194-1.837l0.975-1.501
		l0.861-1.325c0.626,0.251,1.305,0.401,2.018,0.429c3.337,0.128,6.147-2.474,6.276-5.811C13.415,2.943,10.812,0.134,7.475,0.005z
		 M7.067,10.628c-0.464-0.019-0.908-0.105-1.325-0.25c-0.613-0.212-1.164-0.549-1.625-0.981C3.179,8.52,2.611,7.257,2.664,5.873
		c0.097-2.529,2.226-4.5,4.754-4.403c2.529,0.098,4.5,2.227,4.403,4.755C11.724,8.753,9.596,10.725,7.067,10.628z"/>
</g>
</svg>
