<?xml version="1.0" encoding="utf-8"?>
<!-- Generator: Adobe Illustrator 16.0.0, SVG Export Plug-In . SVG Version: 6.00 Build 0)  -->
<!DOCTYPE svg PUBLIC "-//W3C//DTD SVG 1.1//EN" "http://www.w3.org/Graphics/SVG/1.1/DTD/svg11.dtd">
<svg version="1.1" id="Layer_1" xmlns="http://www.w3.org/2000/svg" xmlns:xlink="http://www.w3.org/1999/xlink" x="0px" y="0px"
	 width="182px" height="52.668px" viewBox="0 0 182 52.668" enable-background="new 0 0 182 52.668" xml:space="preserve">
<g>
	<path fill="#FFFFFF" d="M18.647,1.158C4.745,5.411-3.083,20.123,1.149,34.028c9.905-9.146,24.617-19.559,44.407-25.692
		C38.896,1.253,28.578-1.882,18.647,1.158z"/>
	<path fill="#FFFFFF" d="M27.302,52.668c2.244-0.084,4.515-0.425,6.765-1.113c13.916-4.259,21.749-18.992,17.491-32.91
		c-0.394-1.28-0.902-2.492-1.461-3.666C38.188,23.441,27.953,36.216,27.302,52.668z"/>
	<path fill="#FFFFFF" d="M15.445,50.31c5.093-17.117,18.438-31.414,27.241-35.583C26.557,22.364,14.542,32.278,5.587,42.538
		C8.222,45.916,11.618,48.566,15.445,50.31z"/>
</g>
<g>
	<path fill="#FFFFFF" d="M93.673,26.673c0,7.982-6.401,14.107-14.857,14.107c-8.457,0-14.859-6.086-14.859-14.107
		c0-8.062,6.402-14.028,14.859-14.028C87.271,12.645,93.673,18.651,93.673,26.673z M70.358,26.673c0,4.86,3.913,8.653,8.536,8.653
		s8.377-3.793,8.377-8.653c0-4.861-3.754-8.575-8.377-8.575C74.231,18.098,70.358,21.812,70.358,26.673z"/>
	<path fill="#FFFFFF" d="M110.312,12.842c8.575,0,14.543,5.651,14.543,13.831c0,8.141-6.047,13.83-14.779,13.83H98.577V12.842
		H110.312z M104.82,35.247h5.65c4.624,0,8.021-3.477,8.021-8.535c0-5.098-3.556-8.614-8.298-8.614h-5.374V35.247z"/>
	<path fill="#FFFFFF" d="M136.001,18.018v6.007h13.356v5.177h-13.356v6.124h15.253v5.177h-21.497V12.842h21.062v5.176H136.001z"/>
	<path fill="#FFFFFF" d="M176.311,40.503L162.913,22.76v17.743h-5.966V12.842h5.69l13.436,17.782V12.842H182v27.661H176.311z"/>
</g>
</svg>
