<?xml version="1.0" encoding="utf-8"?>
<!-- Generator: Adobe Illustrator 16.0.0, SVG Export Plug-In . SVG Version: 6.00 Build 0)  -->
<!DOCTYPE svg PUBLIC "-//W3C//DTD SVG 1.1//EN" "http://www.w3.org/Graphics/SVG/1.1/DTD/svg11.dtd">
<svg version="1.1" id="Layer_1" xmlns="http://www.w3.org/2000/svg" xmlns:xlink="http://www.w3.org/1999/xlink" x="0px" y="0px"
	 width="22px" height="22px" viewBox="0 0 22 22" enable-background="new 0 0 22 22" xml:space="preserve">
<g>
	<path fill="#FFFFFF" d="M11,0C4.925,0,0,4.925,0,11s4.925,11,11,11s11-4.925,11-11S17.075,0,11,0z M7.381,17.361H4.457V7.958h2.924
		V17.361z M5.919,6.655c-0.928,0-1.681-0.752-1.681-1.681c0-0.928,0.752-1.681,1.681-1.681c0.929,0,1.681,0.752,1.681,1.681
		C7.6,5.903,6.848,6.655,5.919,6.655z M18.328,17.355h-2.923c0,0-0.023-4.68-0.023-5.406c0-0.727-0.43-1.649-1.471-1.649
		c-1.042,0-1.398,0.53-1.594,0.991c-0.196,0.461-0.217,1.471-0.217,1.471v4.6H9.22V7.958h2.777v1.3c0.017,0,0.035,0,0.05,0
		c0.315-0.535,0.658-0.845,1.292-1.206s1.882-0.429,2.846-0.137c0.964,0.292,1.566,1.019,1.791,1.717
		c0.224,0.699,0.352,1.42,0.352,2.731C18.328,13.675,18.328,17.355,18.328,17.355z"/>
</g>
</svg>
