<?xml version="1.0" encoding="utf-8"?>
<!-- Generator: Adobe Illustrator 16.0.0, SVG Export Plug-In . SVG Version: 6.00 Build 0)  -->
<!DOCTYPE svg PUBLIC "-//W3C//DTD SVG 1.1//EN" "http://www.w3.org/Graphics/SVG/1.1/DTD/svg11.dtd">
<svg version="1.1" id="Layer_1" xmlns="http://www.w3.org/2000/svg" xmlns:xlink="http://www.w3.org/1999/xlink" x="0px" y="0px"
	 width="22px" height="22px" viewBox="0 0 22 22" enable-background="new 0 0 22 22" xml:space="preserve">
<g>
	<path fill="#FFFFFF" d="M11,0C4.925,0,0,4.925,0,11s4.925,11,11,11s11-4.925,11-11S17.075,0,11,0z M17.808,7.708
		c-0.249,0.235-0.699,0.593-0.699,0.593s0.009,1.136-0.15,1.909c-0.158,0.772-0.704,2.676-2.11,4.104
		c-1.407,1.428-3.201,2.397-6.063,2.397c-2.253,0-4.066-1.269-4.066-1.269s0.59,0.06,1.004,0.027s1.164-0.083,1.927-0.451
		c0.763-0.368,1.196-0.676,1.25-0.736c-0.11,0.023-0.754-0.11-0.97-0.198c-0.216-0.087-0.869-0.468-1.163-0.865
		c-0.294-0.396-0.487-0.859-0.501-0.924c0.125,0.055,0.382,0.065,0.534,0.065s0.552-0.033,0.736-0.102
		c-0.143-0.009-1.053-0.294-1.504-0.851c-0.451-0.556-0.754-1.108-0.754-1.954c0.184,0.128,0.832,0.345,1.283,0.34
		c-0.253-0.11-0.906-0.694-1.145-1.518c-0.239-0.823-0.073-1.494,0.12-1.973c0.069-0.17,0.147-0.285,0.147-0.285
		c0.497,0.736,2.157,2.115,3.638,2.543c1.48,0.428,1.977,0.418,2.198,0.423c-0.055-0.11-0.087-0.712-0.073-0.864
		c0.013-0.152,0.087-0.934,0.63-1.577c0.542-0.644,1.333-1.035,2.239-1.035c0.906,0,1.692,0.529,2.028,0.888
		c0.138,0.01,0.745-0.184,0.869-0.234c0.124-0.051,0.763-0.331,0.924-0.442c0,0.134-0.309,0.671-0.46,0.874
		c-0.152,0.202-0.671,0.621-0.768,0.68c0.212,0.019,0.754-0.124,1.007-0.207c0.253-0.083,0.602-0.229,0.602-0.229
		S18.056,7.474,17.808,7.708z"/>
</g>
</svg>
