<?xml version="1.0" encoding="utf-8"?>
<!-- Generator: Adobe Illustrator 16.0.0, SVG Export Plug-In . SVG Version: 6.00 Build 0)  -->
<!DOCTYPE svg PUBLIC "-//W3C//DTD SVG 1.1//EN" "http://www.w3.org/Graphics/SVG/1.1/DTD/svg11.dtd">
<svg version="1.1" id="Layer_1" xmlns="http://www.w3.org/2000/svg" xmlns:xlink="http://www.w3.org/1999/xlink" x="0px" y="0px"
	 width="22px" height="22px" viewBox="0 0 22 22" enable-background="new 0 0 22 22" xml:space="preserve">
<path fill="#FFFFFF" d="M15.357,0.899C14.021,0.321,12.549,0,11,0C9.464,0,8.001,0.316,6.673,0.885C2.749,2.566,0,6.461,0,11
	c0,5.091,3.459,9.373,8.155,10.626C9.062,21.869,10.016,22,11,22c0.983,0,1.936-0.131,2.843-0.373C18.539,20.374,22,16.092,22,11
	C22,6.473,19.265,2.586,15.357,0.899z M7.058,16.012L7.056,5.851l9.772,5.098L7.058,16.012z"/>
</svg>
