<?xml version="1.0" encoding="utf-8"?>
<!-- Generator: Adobe Illustrator 16.0.0, SVG Export Plug-In . SVG Version: 6.00 Build 0)  -->
<!DOCTYPE svg PUBLIC "-//W3C//DTD SVG 1.1//EN" "http://www.w3.org/Graphics/SVG/1.1/DTD/svg11.dtd">
<svg version="1.1" id="Layer_1" xmlns="http://www.w3.org/2000/svg" xmlns:xlink="http://www.w3.org/1999/xlink" x="0px" y="0px"
	 width="22px" height="21.896px" viewBox="0 0 22 21.896" enable-background="new 0 0 22 21.896" xml:space="preserve">
<g>
	<path fill="#FFFFFF" d="M22,11c0-6.075-4.925-11-11-11S0,4.925,0,11c0,5.566,4.135,10.164,9.501,10.896v-6.195H6.404v-3.565h3.097
		V9.52c0,0-0.192-2.028,1.068-3.301c1.362-1.362,2.413-1.344,3.612-1.344c1.201,0,2.593,0.12,2.593,0.12v3.181c0,0-0.119,0-1.92,0
		s-1.807,1.38-1.807,1.837c0,0.456,0,2.124,0,2.124h3.547l-0.45,3.547h-3.043v6.114C18.171,20.816,22,16.356,22,11z"/>
</g>
</svg>
